<svg width="48" height="48" viewBox="0 0 48 48" fill="none" xmlns="http://www.w3.org/2000/svg">
<g clip-path="url(#clip0_140_1350)">
<g clip-path="url(#clip1_140_1350)">
<path d="M4.56011 23.7545L0.400114 28.5089C0.194863 28.7438 0.0616514 29.0329 0.0164212 29.3415C-0.0288091 29.6502 0.0158584 29.9654 0.145078 30.2493C0.274297 30.5332 0.482594 30.7739 0.745041 30.9425C1.00749 31.1111 1.31296 31.2006 1.62491 31.2001H4.00011V44.8001C4.00011 45.6488 4.33726 46.4627 4.93737 47.0628C5.53749 47.663 6.35142 48.0001 7.20011 48.0001H40.8001C41.6488 48.0001 42.4627 47.663 43.0629 47.0628C43.663 46.4627 44.0001 45.6488 44.0001 44.8001V31.2001H46.3753C46.6873 31.2006 46.9927 31.1111 47.2552 30.9425C47.5176 30.7739 47.7259 30.5332 47.8551 30.2493C47.9844 29.9654 48.029 29.6502 47.9838 29.3415C47.9386 29.0329 47.8054 28.7438 47.6001 28.5089L43.4401 23.7545C43.2875 23.5801 43.0993 23.4404 42.8881 23.3448C42.677 23.2491 42.4479 23.1998 42.2161 23.2001H38.4961C38.5761 22.9601 38.6561 22.7201 38.7201 22.4801L41.1809 21.4969C41.4901 21.3728 41.7595 21.1667 41.9603 20.9009C42.161 20.635 42.2854 20.3194 42.3201 19.9881C42.4245 18.9347 42.4245 17.8735 42.3201 16.8201C42.2859 16.4865 42.1612 16.1685 41.9595 15.9006C41.7577 15.6327 41.4865 15.4251 41.1753 15.3001L38.7201 14.3201C38.3873 13.1191 37.9077 11.9637 37.2921 10.8801L38.3321 8.44409C38.4695 8.13535 38.5171 7.7941 38.4692 7.45956C38.4214 7.12502 38.2801 6.81076 38.0617 6.55289C37.3888 5.75208 36.6482 5.01067 35.8481 4.33689C35.5898 4.11926 35.2757 3.97847 34.9413 3.93052C34.607 3.88258 34.2659 3.92941 33.9569 4.06569L31.5201 5.10409C30.4366 4.48938 29.2811 4.01108 28.0801 3.68009L27.0961 1.21609C26.9714 0.904867 26.7637 0.633766 26.4958 0.432226C26.2278 0.230686 25.9097 0.10641 25.5761 0.0728939C24.5255 -0.0239724 23.4683 -0.0239724 22.4177 0.0728939C22.0841 0.107068 21.7661 0.231779 21.4982 0.433548C21.2303 0.635316 21.0227 0.906467 20.8977 1.21769L19.9201 3.68009C18.7191 4.01108 17.5637 4.48938 16.4801 5.10409L14.0449 4.06409C13.7361 3.92695 13.3949 3.87958 13.0604 3.92741C12.726 3.97523 12.4117 4.11631 12.1537 4.33449C11.3529 5.00799 10.6117 5.74941 9.93851 6.55049C9.7204 6.80837 9.57936 7.12248 9.53153 7.45682C9.48371 7.79116 9.53104 8.13221 9.66811 8.44089L10.7081 10.8777C10.0924 11.9621 9.61273 13.1183 9.28012 14.3201L6.81931 15.3041C6.51026 15.4281 6.24087 15.6341 6.04014 15.8998C5.83941 16.1655 5.71493 16.4809 5.68011 16.8121C5.57572 17.8655 5.57572 18.9267 5.68011 19.9801C5.71429 20.3137 5.839 20.6317 6.04077 20.8996C6.24254 21.1675 6.51369 21.3751 6.82491 21.5001L9.28012 22.4801C9.34651 22.7201 9.42491 22.9601 9.50412 23.2001H5.78411C5.55235 23.1998 5.32321 23.2491 5.11209 23.3448C4.90097 23.4404 4.71276 23.5801 4.56011 23.7545ZM1.60811 29.5617L5.78411 24.8001H22.2401L18.3833 29.2089C18.2755 29.3317 18.1427 29.4301 17.9939 29.4976C17.8451 29.565 17.6835 29.6 17.5201 29.6001L1.60811 29.5617ZM13.6001 18.4001C13.5944 16.8208 13.9485 15.2609 14.6355 13.8388C15.3225 12.4167 16.3243 11.1697 17.565 10.1925C18.8058 9.21531 20.2527 8.53351 21.7962 8.19883C23.3397 7.86416 24.9391 7.8854 26.4731 8.26096C28.0072 8.63652 29.4355 9.35653 30.6498 10.3664C31.8641 11.3762 32.8325 12.6493 33.4815 14.0892C34.1304 15.529 34.443 17.0977 34.3953 18.6764C34.3477 20.255 33.9411 21.802 33.2065 23.2001H14.7937C14.0153 21.7195 13.6058 20.0728 13.6001 18.4001ZM5.60011 44.8001V31.2001H17.5201C17.9115 31.2001 18.2983 31.1165 18.6547 30.9548C19.0111 30.7931 19.3288 30.557 19.5865 30.2625L23.2001 26.1297V46.4001H7.20011C6.77577 46.4001 6.3688 46.2315 6.06874 45.9315C5.76868 45.6314 5.60011 45.2244 5.60011 44.8001ZM42.4001 44.8001C42.4001 45.2244 42.2315 45.6314 41.9315 45.9315C41.6314 46.2315 41.2245 46.4001 40.8001 46.4001H24.8001V26.1297L28.4169 30.2633C28.6744 30.5572 28.9916 30.7928 29.3474 30.9543C29.7032 31.1159 30.0894 31.1997 30.4801 31.2001H42.4001V44.8001ZM42.2329 24.8081L46.3753 29.6001H30.4801C30.3169 29.6 30.1555 29.5652 30.0068 29.4979C29.8581 29.4305 29.7255 29.3323 29.6177 29.2097L25.7601 24.8001L42.2329 24.8081ZM10.7281 21.6945C10.6976 21.5711 10.6382 21.4567 10.5547 21.3609C10.4713 21.265 10.3662 21.1904 10.2481 21.1433L7.41931 20.0137C7.38062 19.9984 7.34657 19.9734 7.32048 19.941C7.2944 19.9086 7.27718 19.87 7.27051 19.8289C7.17571 18.8758 7.17571 17.9156 7.27051 16.9625C7.27787 16.9234 7.29511 16.8869 7.3206 16.8563C7.34608 16.8258 7.37897 16.8023 7.41611 16.7881L10.2481 15.6569C10.3662 15.6098 10.4713 15.5352 10.5547 15.4393C10.6382 15.3435 10.6976 15.2291 10.7281 15.1057C11.056 13.7813 11.5814 12.5138 12.2865 11.3457C12.3522 11.2371 12.3911 11.1145 12.4 10.9879C12.4089 10.8613 12.3875 10.7344 12.3377 10.6177L11.1377 7.81049C11.1198 7.77342 11.1125 7.73206 11.1167 7.69108C11.121 7.6501 11.1365 7.61111 11.1617 7.57849C11.7795 6.84457 12.4593 6.16526 13.1937 5.54809C13.2259 5.52633 13.2634 5.51352 13.3022 5.51099C13.341 5.50846 13.3797 5.51629 13.4145 5.53369L16.2201 6.73369C16.3368 6.78363 16.4636 6.8051 16.5902 6.79634C16.7168 6.78757 16.8395 6.74883 16.9481 6.68329C18.116 5.97735 19.3835 5.45145 20.7081 5.12329C20.8314 5.09271 20.9456 5.03323 21.0413 4.94976C21.137 4.8663 21.2115 4.76124 21.2585 4.64329L22.3889 1.81369C22.4036 1.77475 22.4283 1.74043 22.4607 1.71427C22.493 1.68811 22.5318 1.67107 22.5729 1.66489C23.5258 1.57683 24.4848 1.57683 25.4377 1.66489C25.4769 1.6721 25.5135 1.68929 25.544 1.71479C25.5746 1.7403 25.598 1.77327 25.6121 1.81049L26.7433 4.64249C26.7904 4.76044 26.8648 4.8655 26.9605 4.94896C27.0563 5.03243 27.1705 5.09191 27.2937 5.12249C28.6183 5.45065 29.8859 5.97655 31.0537 6.68249C31.1624 6.74803 31.285 6.78677 31.4116 6.79554C31.5382 6.8043 31.6651 6.78283 31.7817 6.73289L34.5881 5.53289C34.6251 5.51475 34.6665 5.50738 34.7076 5.51162C34.7486 5.51586 34.7876 5.53155 34.8201 5.55689C35.5534 6.17508 36.2324 6.85489 36.8497 7.58889C36.8716 7.6214 36.8844 7.65915 36.8867 7.69825C36.8891 7.73734 36.8811 7.77637 36.8633 7.81129L35.6633 10.6177C35.6135 10.7344 35.5922 10.8613 35.6011 10.9879C35.61 11.1145 35.6489 11.2371 35.7145 11.3457C36.4196 12.5138 36.945 13.7813 37.2729 15.1057C37.3034 15.2291 37.3628 15.3435 37.4463 15.4393C37.5298 15.5352 37.6349 15.6098 37.7529 15.6569L40.5825 16.7865C40.6212 16.8018 40.6553 16.8268 40.6813 16.8592C40.7074 16.8916 40.7247 16.9302 40.7313 16.9713C40.8261 17.9244 40.8261 18.8846 40.7313 19.8377C40.724 19.8768 40.7067 19.9133 40.6812 19.9439C40.6557 19.9744 40.6229 19.9979 40.5857 20.0121L37.7537 21.1433C37.6357 21.1904 37.5306 21.265 37.4471 21.3609C37.3636 21.4567 37.3042 21.5711 37.2737 21.6945C37.1435 22.2054 36.9833 22.7081 36.7937 23.2001H34.9937C35.7925 21.3738 36.1237 19.3773 35.9575 17.3909C35.7913 15.4046 35.1329 13.4909 34.0418 11.8227C32.9507 10.1546 31.4612 8.78448 29.7079 7.83624C27.9546 6.88799 25.9926 6.39144 23.9993 6.39144C22.006 6.39144 20.0441 6.88799 18.2908 7.83624C16.5374 8.78448 15.0479 10.1546 13.9568 11.8227C12.8657 13.4909 12.2073 15.4046 12.0411 17.3909C11.8749 19.3773 12.2062 21.3738 13.0049 23.2001H11.2049C11.0164 22.7081 10.8572 22.2053 10.7281 21.6945Z" fill="white"/>
</g>
</g>
<defs>
<clipPath id="clip0_140_1350">
<rect width="48" height="48" fill="white"/>
</clipPath>
<clipPath id="clip1_140_1350">
<rect width="48" height="48" fill="white"/>
</clipPath>
</defs>
</svg>
