<svg width="48" height="48" viewBox="0 0 48 48" fill="none" xmlns="http://www.w3.org/2000/svg">
<g clip-path="url(#clip0_140_1383)">
<path d="M2.3999 4.8V38.4C2.40117 39.6727 2.90729 40.8928 3.80719 41.7927C4.70709 42.6926 5.92725 43.1987 7.1999 43.2H11.3383C11.1563 43.8445 11.1508 44.5261 11.3224 45.1734C11.4939 45.8208 11.8362 46.4102 12.3135 46.88C12.6826 47.2415 13.1204 47.5253 13.6011 47.7146C14.0818 47.9039 14.5956 47.9948 15.112 47.9821C15.6285 47.9693 16.1371 47.8531 16.6079 47.6403C17.0786 47.4275 17.5019 47.1225 17.8527 46.7432L21.1911 43.2H27.5383L31.5703 47.2968C32.025 47.7382 32.6338 47.985 33.2675 47.985C33.9012 47.985 34.51 47.7382 34.9647 47.2968L36.0959 46.1656C36.4785 45.7818 36.7199 45.2799 36.7809 44.7414C36.842 44.2029 36.7189 43.6597 36.4319 43.2H40.7999C42.0726 43.1987 43.2927 42.6926 44.1926 41.7927C45.0925 40.8928 45.5986 39.6727 45.5999 38.4V4.8C45.5986 3.52735 45.0925 2.30719 44.1926 1.40729C43.2927 0.507392 42.0726 0.00127074 40.7999 0L7.1999 0C5.92725 0.00127074 4.70709 0.507392 3.80719 1.40729C2.90729 2.30719 2.40117 3.52735 2.3999 4.8ZM16.6751 45.6584C16.4735 45.8851 16.2275 46.0682 15.9524 46.1962C15.6772 46.3241 15.3788 46.3944 15.0755 46.4026C14.7722 46.4108 14.4704 46.3567 14.1887 46.2437C13.9071 46.1307 13.6516 45.9612 13.4381 45.7457C13.2245 45.5302 13.0574 45.2731 12.947 44.9905C12.8366 44.7078 12.7853 44.4056 12.7963 44.1023C12.8072 43.7991 12.8802 43.5013 13.0107 43.2274C13.1412 42.9534 13.3265 42.7092 13.5551 42.5096L21.0159 35.48L23.1543 37.6208C23.0595 37.9774 23.0909 38.3559 23.2431 38.692L16.6751 45.6584ZM13.9447 32C13.8398 32.1049 13.7661 32.237 13.7319 32.3813C13.6977 32.5257 13.7044 32.6768 13.7511 32.8176L14.0967 33.8576L13.0327 34.9624L9.6335 31.5616L10.7255 30.4664L11.7551 30.8112C11.8958 30.8584 12.0469 30.8655 12.1914 30.8317C12.336 30.798 12.4683 30.7247 12.5735 30.62L13.5775 29.6216C13.7272 29.4705 13.8112 29.2663 13.8112 29.0536C13.8112 28.8409 13.7272 28.6367 13.5775 28.4856C13.5198 28.4284 13.4741 28.3602 13.443 28.2851C13.4119 28.21 13.3962 28.1295 13.3966 28.0482C13.3971 27.9669 13.4137 27.8866 13.4456 27.8118C13.4775 27.737 13.524 27.6694 13.5823 27.6128L17.5823 23.5952C18.6849 22.4828 20.143 21.7928 21.7023 21.6456C20.9647 22.2056 20.2527 22.7984 19.5815 23.4056C19.3553 23.6048 19.1725 23.8483 19.0444 24.121C18.9163 24.3938 18.8456 24.69 18.8367 24.9912C18.8274 25.2932 18.8793 25.594 18.9893 25.8754C19.0993 26.1569 19.2651 26.4131 19.4767 26.6288L19.9567 27.1088C20.0705 27.2259 20.1342 27.3827 20.1342 27.546C20.1342 27.7093 20.0705 27.8661 19.9567 27.9832L16.9543 30.9944C16.8974 31.0514 16.8298 31.0965 16.7554 31.1271C16.681 31.1577 16.6012 31.1732 16.5207 31.1728C16.4404 31.1735 16.3608 31.158 16.2866 31.1274C16.2124 31.0968 16.1451 31.0515 16.0887 30.9944C15.9377 30.8454 15.734 30.7619 15.5219 30.7619C15.3098 30.7619 15.1061 30.8454 14.9551 30.9944L13.9447 32ZM20.1319 30.0664L25.2583 35.2L24.1287 36.3296L19.0007 31.2L20.1319 30.0664ZM27.3783 28.7864C26.9529 27.7653 26.8417 26.6405 27.0587 25.5558C27.2757 24.4711 27.8112 23.4757 28.5967 22.6968C29.2313 22.0776 29.9835 21.5917 30.8088 21.2678C31.6341 20.9438 32.5159 20.7883 33.4023 20.8104C33.4443 20.8093 33.4857 20.8212 33.5206 20.8446C33.5556 20.8679 33.5825 20.9015 33.5975 20.9408C33.6109 20.9725 33.6137 21.0077 33.6055 21.0412C33.5972 21.0746 33.5785 21.1045 33.5519 21.1264L30.8679 23.8192C30.6886 23.994 30.5462 24.203 30.4492 24.4339C30.3521 24.6648 30.3025 24.9128 30.3031 25.1632V27.02C30.3035 27.5205 30.5025 28.0003 30.8563 28.3543C31.2101 28.7082 31.6898 28.9074 32.1903 28.908H34.0471C34.5472 28.9057 35.0263 28.7065 35.3807 28.3536L38.0767 25.6568C38.1046 25.6277 38.1405 25.6078 38.1799 25.5995C38.2193 25.5912 38.2603 25.595 38.2975 25.6104C38.3248 25.6172 38.349 25.6331 38.3661 25.6555C38.3831 25.6779 38.3919 25.7055 38.3911 25.7336C38.4262 26.6321 38.2776 27.5282 37.9545 28.3673C37.6314 29.2064 37.1405 29.9707 36.5119 30.6136C35.7337 31.3991 34.7388 31.9345 33.6545 32.1513C32.5702 32.3681 31.4459 32.2563 30.4255 31.8304C30.2755 31.769 30.1104 31.7543 29.9518 31.7881C29.7933 31.8219 29.6486 31.9027 29.5367 32.02L27.4335 34.2496C27.145 34.1594 26.8368 34.1527 26.5447 34.2304L24.5151 32.192L27.1879 29.6688C27.3059 29.5575 27.3873 29.413 27.4213 29.2544C27.4553 29.0958 27.4403 28.9307 27.3783 28.7808V28.7864ZM22.6999 41.6L24.2999 39.9064L25.9639 41.6H22.6999ZM34.9647 45.0344L33.8335 46.1656C33.6843 46.315 33.482 46.3993 33.2709 46.4002C33.0597 46.4011 32.8568 46.3185 32.7063 46.1704L24.6943 38.028L26.9599 35.7736L26.9639 35.768L34.9647 43.9024C35.0391 43.9767 35.0981 44.0649 35.1384 44.1621C35.1786 44.2592 35.1993 44.3633 35.1993 44.4684C35.1993 44.5735 35.1786 44.6776 35.1384 44.7748C35.0981 44.8719 35.0391 44.9601 34.9647 45.0344ZM40.7999 41.6H34.9439L28.6911 35.2456L30.3375 33.5C31.5988 33.9142 32.9505 33.969 34.2411 33.6581C35.5318 33.3472 36.7103 32.6831 37.6447 31.74C38.4293 30.9374 39.042 29.9832 39.4452 28.9357C39.8483 27.8883 40.0336 26.7695 39.9895 25.648C39.9752 25.3109 39.8618 24.9855 39.6636 24.7125C39.4654 24.4395 39.1912 24.2309 38.8751 24.1128C38.5487 23.9859 38.1924 23.9568 37.8497 24.0291C37.507 24.1014 37.1928 24.272 36.9455 24.52L34.2495 27.2168C34.1952 27.2698 34.1229 27.3004 34.0471 27.3024H32.1903C32.1141 27.3022 32.041 27.2718 31.9872 27.2178C31.9333 27.1638 31.9031 27.0906 31.9031 27.0144V25.1576C31.903 25.1197 31.9105 25.0822 31.9252 25.0473C31.9399 25.0124 31.9615 24.9808 31.9887 24.9544L34.6839 22.2512C34.9304 22.0103 35.1002 21.7021 35.1723 21.3651C35.2443 21.0281 35.2152 20.6773 35.0887 20.3568C34.9624 20.0272 34.7416 19.7422 34.454 19.5375C34.1664 19.3329 33.8247 19.2177 33.4719 19.2064C32.3647 19.179 31.2632 19.3729 30.2319 19.7768C29.2007 20.1807 28.2604 20.7864 27.4663 21.5584C26.5238 22.4935 25.86 23.6723 25.5492 24.9631C25.2384 26.2538 25.2928 27.6056 25.7063 28.8672L23.3863 31.0584L21.2431 28.912C21.581 28.4876 21.7513 27.954 21.7218 27.4124C21.6923 26.8707 21.465 26.3588 21.0831 25.9736L20.6095 25.4976C20.5503 25.4375 20.504 25.3659 20.4736 25.2872C20.4432 25.2084 20.4293 25.1243 20.4327 25.04C20.4357 24.9546 20.4562 24.8706 20.493 24.7934C20.5297 24.7163 20.5819 24.6474 20.6463 24.5912C21.502 23.8173 22.3999 23.0914 23.3359 22.4168C23.5682 22.2528 23.742 22.019 23.8322 21.7494C23.9225 21.4797 23.9243 21.1883 23.8375 20.9176C23.7536 20.6519 23.5874 20.4198 23.3629 20.2549C23.1384 20.0899 22.8673 20.0007 22.5887 20C21.4524 19.9803 20.3237 20.1879 19.2688 20.6105C18.2138 21.0331 17.254 21.6621 16.4455 22.4608L12.4503 26.4744C12.1319 26.7906 11.9169 27.1959 11.8336 27.6368C11.7504 28.0777 11.8028 28.5335 11.9839 28.944L11.7951 29.132L11.1815 28.9264C10.9147 28.8364 10.6279 28.823 10.3539 28.8877C10.0798 28.9525 9.8294 29.0928 9.6311 29.2928L8.4391 30.488C8.15639 30.7717 7.99765 31.1559 7.99765 31.5564C7.99765 31.9569 8.15639 32.3411 8.4391 32.6248L11.9359 36.1232C12.2197 36.4079 12.6047 36.5685 13.0067 36.57C13.4086 36.5715 13.7948 36.4137 14.0807 36.1312L15.2735 34.9368C15.4704 34.7386 15.608 34.4893 15.6711 34.2172C15.7341 33.945 15.72 33.6606 15.6303 33.396L15.4247 32.7792L15.6199 32.5832C15.9016 32.7066 16.2059 32.7701 16.5135 32.7696C16.9972 32.7685 17.467 32.6073 17.8495 32.3112L19.8847 34.3496L12.4727 41.3328C12.3815 41.4128 12.3127 41.512 12.2279 41.6016H7.1999C6.35121 41.6016 5.53728 41.2645 4.93716 40.6643C4.33704 40.0642 3.9999 39.2503 3.9999 38.4016V8H43.9999V38.4C43.9999 39.2487 43.6628 40.0626 43.0626 40.6627C42.4625 41.2629 41.6486 41.6 40.7999 41.6ZM7.1999 1.6H40.7999C41.6486 1.6 42.4625 1.93714 43.0626 2.53726C43.6628 3.13738 43.9999 3.95131 43.9999 4.8V6.4H3.9999V4.8C3.9999 3.95131 4.33704 3.13738 4.93716 2.53726C5.53728 1.93714 6.35121 1.6 7.1999 1.6Z" fill="white"/>
<path d="M7.1999 4.79995H7.9999C8.21208 4.79995 8.41556 4.71567 8.56559 4.56564C8.71562 4.41561 8.7999 4.21212 8.7999 3.99995C8.7999 3.78778 8.71562 3.5843 8.56559 3.43427C8.41556 3.28424 8.21208 3.19995 7.9999 3.19995H7.1999C6.98773 3.19995 6.78425 3.28424 6.63422 3.43427C6.48419 3.5843 6.3999 3.78778 6.3999 3.99995C6.3999 4.21212 6.48419 4.41561 6.63422 4.56564C6.78425 4.71567 6.98773 4.79995 7.1999 4.79995ZM11.1999 4.79995H11.9999C12.2121 4.79995 12.4156 4.71567 12.5656 4.56564C12.7156 4.41561 12.7999 4.21212 12.7999 3.99995C12.7999 3.78778 12.7156 3.5843 12.5656 3.43427C12.4156 3.28424 12.2121 3.19995 11.9999 3.19995H11.1999C10.9877 3.19995 10.7842 3.28424 10.6342 3.43427C10.4842 3.5843 10.3999 3.78778 10.3999 3.99995C10.3999 4.21212 10.4842 4.41561 10.6342 4.56564C10.7842 4.71567 10.9877 4.79995 11.1999 4.79995ZM15.1999 4.79995H15.9999C16.2121 4.79995 16.4156 4.71567 16.5656 4.56564C16.7156 4.41561 16.7999 4.21212 16.7999 3.99995C16.7999 3.78778 16.7156 3.5843 16.5656 3.43427C16.4156 3.28424 16.2121 3.19995 15.9999 3.19995H15.1999C14.9877 3.19995 14.7842 3.28424 14.6342 3.43427C14.4842 3.5843 14.3999 3.78778 14.3999 3.99995C14.3999 4.21212 14.4842 4.41561 14.6342 4.56564C14.7842 4.71567 14.9877 4.79995 15.1999 4.79995ZM23.9999 4.79995H36.7999C37.0121 4.79995 37.2156 4.71567 37.3656 4.56564C37.5156 4.41561 37.5999 4.21212 37.5999 3.99995C37.5999 3.78778 37.5156 3.5843 37.3656 3.43427C37.2156 3.28424 37.0121 3.19995 36.7999 3.19995H23.9999C23.7877 3.19995 23.5842 3.28424 23.4342 3.43427C23.2842 3.5843 23.1999 3.78778 23.1999 3.99995C23.1999 4.21212 23.2842 4.41561 23.4342 4.56564C23.5842 4.71567 23.7877 4.79995 23.9999 4.79995ZM19.8399 11.52C19.7126 11.3502 19.5231 11.238 19.313 11.208C19.103 11.178 18.8896 11.2326 18.7199 11.36L15.5199 13.76C15.4205 13.8345 15.3399 13.9311 15.2844 14.0422C15.2288 14.1533 15.1999 14.2758 15.1999 14.4C15.1999 14.5241 15.2288 14.6466 15.2844 14.7577C15.3399 14.8688 15.4205 14.9654 15.5199 15.04L18.7199 17.44C18.8039 17.503 18.8996 17.5488 19.0014 17.5749C19.1031 17.601 19.209 17.6068 19.313 17.5919C19.417 17.5771 19.5171 17.5419 19.6075 17.4883C19.6979 17.4348 19.7769 17.364 19.8399 17.28C19.9029 17.1959 19.9488 17.1003 19.9749 16.9985C20.0009 16.8967 20.0067 16.7908 19.9919 16.6868C19.977 16.5828 19.9418 16.4828 19.8883 16.3924C19.8348 16.302 19.7639 16.223 19.6799 16.16L17.3335 14.4L19.6799 12.64C19.7639 12.5769 19.8348 12.4979 19.8883 12.4075C19.9418 12.3171 19.977 12.2171 19.9919 12.1131C20.0067 12.0091 20.0009 11.9032 19.9749 11.8014C19.9488 11.6996 19.9029 11.604 19.8399 11.52ZM29.2799 11.36C29.1959 11.2969 29.1002 11.2511 28.9984 11.225C28.8967 11.1989 28.7908 11.1931 28.6868 11.208C28.4767 11.238 28.2872 11.3502 28.1599 11.52C28.0326 11.6897 27.9779 11.903 28.0079 12.1131C28.038 12.3231 28.1502 12.5126 28.3199 12.64L30.6663 14.4L28.3199 16.16C28.1502 16.2873 28.038 16.4768 28.0079 16.6868C27.9779 16.8969 28.0326 17.1102 28.1599 17.28C28.2872 17.4497 28.4767 17.5619 28.6868 17.5919C28.8968 17.6219 29.1102 17.5673 29.2799 17.44L32.4799 15.04C32.5793 14.9654 32.6599 14.8688 32.7154 14.7577C32.771 14.6466 32.7999 14.5241 32.7999 14.4C32.7999 14.2758 32.771 14.1533 32.7154 14.0422C32.6599 13.9311 32.5793 13.8345 32.4799 13.76L29.2799 11.36ZM24.9935 10.424C24.7877 10.3727 24.57 10.4052 24.3881 10.5144C24.2063 10.6236 24.0753 10.8006 24.0239 11.0064L22.4239 17.4064C22.3726 17.6122 22.4052 17.8299 22.5144 18.0117C22.6236 18.1935 22.8005 18.3246 23.0063 18.376C23.0696 18.3917 23.1346 18.3997 23.1999 18.4C23.3782 18.3997 23.5513 18.3399 23.6918 18.2301C23.8322 18.1202 23.932 17.9666 23.9751 17.7936L25.5751 11.3936C25.6264 11.1879 25.594 10.9702 25.4849 10.7884C25.3759 10.6066 25.1991 10.4755 24.9935 10.424Z" fill="white"/>
</g>
<defs>
<clipPath id="clip0_140_1383">
<rect width="48" height="48" fill="white"/>
</clipPath>
</defs>
</svg>
