<svg width="48" height="48" viewBox="0 0 48 48" fill="none" xmlns="http://www.w3.org/2000/svg">
<g clip-path="url(#clip0_140_1400)">
<g clip-path="url(#clip1_140_1400)">
<path d="M44 12H43.2V4.8C43.1987 3.52735 42.6926 2.30719 41.7927 1.40729C40.8928 0.507392 39.6726 0.00127074 38.4 0L4.8 0C3.52735 0.00127074 2.30719 0.507392 1.40729 1.40729C0.507392 2.30719 0.00127074 3.52735 0 4.8L0 38.4C0.00127074 39.6726 0.507392 40.8928 1.40729 41.7927C2.30719 42.6926 3.52735 43.1987 4.8 43.2H17.6V44C17.6013 45.0605 18.0231 46.0772 18.773 46.827C19.5228 47.5769 20.5395 47.9987 21.6 48H44C45.0605 47.9987 46.0772 47.5769 46.827 46.827C47.5769 46.0772 47.9987 45.0605 48 44V16C47.9987 14.9395 47.5769 13.9228 46.827 13.173C46.0772 12.4231 45.0605 12.0013 44 12ZM4.8 1.6H38.4C39.2487 1.6 40.0626 1.93714 40.6627 2.53726C41.2629 3.13737 41.6 3.95131 41.6 4.8V6.4H1.6V4.8C1.6 3.95131 1.93714 3.13737 2.53726 2.53726C3.13737 1.93714 3.95131 1.6 4.8 1.6ZM17.6 16V41.6H4.8C3.95131 41.6 3.13737 41.2629 2.53726 40.6627C1.93714 40.0626 1.6 39.2487 1.6 38.4V8H41.6V12H38.1776C38.0383 11.7576 37.8377 11.556 37.5959 11.4156C37.3541 11.2752 37.0796 11.2008 36.8 11.2H36.6792C36.3674 10.4427 35.8246 9.80303 35.1281 9.37212C34.4316 8.94121 33.6169 8.741 32.8 8.8C31.9831 8.741 31.1684 8.94121 30.4719 9.37212C29.7754 9.80303 29.2326 10.4427 28.9208 11.2H28.8C28.5204 11.2008 28.2459 11.2752 28.0041 11.4156C27.7623 11.556 27.5617 11.7576 27.4224 12H21.6C20.5395 12.0013 19.5228 12.4231 18.773 13.173C18.0231 13.9228 17.6013 14.9395 17.6 16ZM27.4224 16.8C27.5617 17.0424 27.7623 17.244 28.0041 17.3844C28.2459 17.5248 28.5204 17.5992 28.8 17.6H36.8C37.0796 17.5992 37.3541 17.5248 37.5959 17.3844C37.8377 17.244 38.0383 17.0424 38.1776 16.8H43.2V43.2H22.4V16.8H27.4224ZM28.8 16V12.8H29.6C29.8122 12.8 30.0157 12.7157 30.1657 12.5657C30.3157 12.4157 30.4 12.2122 30.4 12C30.4 11.1328 31.4992 10.4 32.8 10.4C34.1008 10.4 35.2 11.1328 35.2 12C35.2 12.2122 35.2843 12.4157 35.4343 12.5657C35.5843 12.7157 35.7878 12.8 36 12.8H36.8V16H28.8ZM46.4 44C46.4 44.6365 46.1471 45.247 45.6971 45.6971C45.247 46.1471 44.6365 46.4 44 46.4H21.6C20.9635 46.4 20.353 46.1471 19.9029 45.6971C19.4529 45.247 19.2 44.6365 19.2 44V16C19.2 15.3635 19.4529 14.753 19.9029 14.3029C20.353 13.8529 20.9635 13.6 21.6 13.6H27.2V15.2H22.4C21.9757 15.2 21.5687 15.3686 21.2686 15.6686C20.9686 15.9687 20.8 16.3757 20.8 16.8V43.2C20.8 43.6243 20.9686 44.0313 21.2686 44.3314C21.5687 44.6314 21.9757 44.8 22.4 44.8H43.2C43.6243 44.8 44.0313 44.6314 44.3314 44.3314C44.6314 44.0313 44.8 43.6243 44.8 43.2V16.8C44.8 16.3757 44.6314 15.9687 44.3314 15.6686C44.0313 15.3686 43.6243 15.2 43.2 15.2H38.4V13.6H44C44.6365 13.6 45.247 13.8529 45.6971 14.3029C46.1471 14.753 46.4 15.3635 46.4 16V44Z" fill="white"/>
<path d="M4.8 4.79995H5.6C5.81217 4.79995 6.01566 4.71567 6.16569 4.56564C6.31571 4.41561 6.4 4.21212 6.4 3.99995C6.4 3.78778 6.31571 3.5843 6.16569 3.43427C6.01566 3.28424 5.81217 3.19995 5.6 3.19995H4.8C4.58783 3.19995 4.38434 3.28424 4.23431 3.43427C4.08429 3.5843 4 3.78778 4 3.99995C4 4.21212 4.08429 4.41561 4.23431 4.56564C4.38434 4.71567 4.58783 4.79995 4.8 4.79995ZM8.8 4.79995H9.6C9.81217 4.79995 10.0157 4.71567 10.1657 4.56564C10.3157 4.41561 10.4 4.21212 10.4 3.99995C10.4 3.78778 10.3157 3.5843 10.1657 3.43427C10.0157 3.28424 9.81217 3.19995 9.6 3.19995H8.8C8.58783 3.19995 8.38434 3.28424 8.23431 3.43427C8.08429 3.5843 8 3.78778 8 3.99995C8 4.21212 8.08429 4.41561 8.23431 4.56564C8.38434 4.71567 8.58783 4.79995 8.8 4.79995ZM12.8 4.79995H13.6C13.8122 4.79995 14.0157 4.71567 14.1657 4.56564C14.3157 4.41561 14.4 4.21212 14.4 3.99995C14.4 3.78778 14.3157 3.5843 14.1657 3.43427C14.0157 3.28424 13.8122 3.19995 13.6 3.19995H12.8C12.5878 3.19995 12.3843 3.28424 12.2343 3.43427C12.0843 3.5843 12 3.78778 12 3.99995C12 4.21212 12.0843 4.41561 12.2343 4.56564C12.3843 4.71567 12.5878 4.79995 12.8 4.79995ZM21.6 4.79995H34.4C34.6122 4.79995 34.8157 4.71567 34.9657 4.56564C35.1157 4.41561 35.2 4.21212 35.2 3.99995C35.2 3.78778 35.1157 3.5843 34.9657 3.43427C34.8157 3.28424 34.6122 3.19995 34.4 3.19995H21.6C21.3878 3.19995 21.1843 3.28424 21.0343 3.43427C20.8843 3.5843 20.8 3.78778 20.8 3.99995C20.8 4.21212 20.8843 4.41561 21.0343 4.56564C21.1843 4.71567 21.3878 4.79995 21.6 4.79995ZM4.8 23.2H5.6C5.81217 23.2 6.01566 23.1157 6.16569 22.9656C6.31571 22.8156 6.4 22.6121 6.4 22.4C6.4 22.1878 6.31571 21.9843 6.16569 21.8343C6.01566 21.6842 5.81217 21.6 5.6 21.6H4.8C4.58783 21.6 4.38434 21.6842 4.23431 21.8343C4.08429 21.9843 4 22.1878 4 22.4C4 22.6121 4.08429 22.8156 4.23431 22.9656C4.38434 23.1157 4.58783 23.2 4.8 23.2ZM15.2 21.6H8.8C8.58783 21.6 8.38434 21.6842 8.23431 21.8343C8.08429 21.9843 8 22.1878 8 22.4C8 22.6121 8.08429 22.8156 8.23431 22.9656C8.38434 23.1157 8.58783 23.2 8.8 23.2H15.2C15.4122 23.2 15.6157 23.1157 15.7657 22.9656C15.9157 22.8156 16 22.6121 16 22.4C16 22.1878 15.9157 21.9843 15.7657 21.8343C15.6157 21.6842 15.4122 21.6 15.2 21.6ZM6.4 32C6.4 31.7878 6.31571 31.5843 6.16569 31.4343C6.01566 31.2842 5.81217 31.2 5.6 31.2H4.8C4.58783 31.2 4.38434 31.2842 4.23431 31.4343C4.08429 31.5843 4 31.7878 4 32C4 32.2121 4.08429 32.4156 4.23431 32.5656C4.38434 32.7157 4.58783 32.8 4.8 32.8H5.6C5.81217 32.8 6.01566 32.7157 6.16569 32.5656C6.31571 32.4156 6.4 32.2121 6.4 32ZM15.2 31.2H8.8C8.58783 31.2 8.38434 31.2842 8.23431 31.4343C8.08429 31.5843 8 31.7878 8 32C8 32.2121 8.08429 32.4156 8.23431 32.5656C8.38434 32.7157 8.58783 32.8 8.8 32.8H15.2C15.4122 32.8 15.6157 32.7157 15.7657 32.5656C15.9157 32.4156 16 32.2121 16 32C16 31.7878 15.9157 31.5843 15.7657 31.4343C15.6157 31.2842 15.4122 31.2 15.2 31.2ZM7.2 24.8H6.4C6.18783 24.8 5.98434 24.8842 5.83431 25.0343C5.68429 25.1843 5.6 25.3878 5.6 25.6C5.6 25.8121 5.68429 26.0156 5.83431 26.1656C5.98434 26.3157 6.18783 26.4 6.4 26.4H7.2C7.41217 26.4 7.61566 26.3157 7.76569 26.1656C7.91571 26.0156 8 25.8121 8 25.6C8 25.3878 7.91571 25.1843 7.76569 25.0343C7.61566 24.8842 7.41217 24.8 7.2 24.8ZM15.2 24.8H10.4C10.1878 24.8 9.98434 24.8842 9.83432 25.0343C9.68429 25.1843 9.6 25.3878 9.6 25.6C9.6 25.8121 9.68429 26.0156 9.83432 26.1656C9.98434 26.3157 10.1878 26.4 10.4 26.4H15.2C15.4122 26.4 15.6157 26.3157 15.7657 26.1656C15.9157 26.0156 16 25.8121 16 25.6C16 25.3878 15.9157 25.1843 15.7657 25.0343C15.6157 24.8842 15.4122 24.8 15.2 24.8ZM7.2 28H6.4C6.18783 28 5.98434 28.0842 5.83431 28.2343C5.68429 28.3843 5.6 28.5878 5.6 28.8C5.6 29.0121 5.68429 29.2156 5.83431 29.3656C5.98434 29.5157 6.18783 29.6 6.4 29.6H7.2C7.41217 29.6 7.61566 29.5157 7.76569 29.3656C7.91571 29.2156 8 29.0121 8 28.8C8 28.5878 7.91571 28.3843 7.76569 28.2343C7.61566 28.0842 7.41217 28 7.2 28ZM15.2 28H10.4C10.1878 28 9.98434 28.0842 9.83432 28.2343C9.68429 28.3843 9.6 28.5878 9.6 28.8C9.6 29.0121 9.68429 29.2156 9.83432 29.3656C9.98434 29.5157 10.1878 29.6 10.4 29.6H15.2C15.4122 29.6 15.6157 29.5157 15.7657 29.3656C15.9157 29.2156 16 29.0121 16 28.8C16 28.5878 15.9157 28.3843 15.7657 28.2343C15.6157 28.0842 15.4122 28 15.2 28ZM4.8 13.6H5.6C5.81217 13.6 6.01566 13.5157 6.16569 13.3656C6.31571 13.2156 6.4 13.0121 6.4 12.8C6.4 12.5878 6.31571 12.3843 6.16569 12.2343C6.01566 12.0842 5.81217 12 5.6 12H4.8C4.58783 12 4.38434 12.0842 4.23431 12.2343C4.08429 12.3843 4 12.5878 4 12.8C4 13.0121 4.08429 13.2156 4.23431 13.3656C4.38434 13.5157 4.58783 13.6 4.8 13.6ZM15.2 12H8.8C8.58783 12 8.38434 12.0842 8.23431 12.2343C8.08429 12.3843 8 12.5878 8 12.8C8 13.0121 8.08429 13.2156 8.23431 13.3656C8.38434 13.5157 8.58783 13.6 8.8 13.6H15.2C15.4122 13.6 15.6157 13.5157 15.7657 13.3656C15.9157 13.2156 16 13.0121 16 12.8C16 12.5878 15.9157 12.3843 15.7657 12.2343C15.6157 12.0842 15.4122 12 15.2 12ZM5.6 16C5.6 16.2121 5.68429 16.4156 5.83431 16.5656C5.98434 16.7157 6.18783 16.8 6.4 16.8H7.2C7.41217 16.8 7.61566 16.7157 7.76569 16.5656C7.91571 16.4156 8 16.2121 8 16C8 15.7878 7.91571 15.5843 7.76569 15.4343C7.61566 15.2842 7.41217 15.2 7.2 15.2H6.4C6.18783 15.2 5.98434 15.2842 5.83431 15.4343C5.68429 15.5843 5.6 15.7878 5.6 16ZM15.2 15.2H10.4C10.1878 15.2 9.98434 15.2842 9.83432 15.4343C9.68429 15.5843 9.6 15.7878 9.6 16C9.6 16.2121 9.68429 16.4156 9.83432 16.5656C9.98434 16.7157 10.1878 16.8 10.4 16.8H15.2C15.4122 16.8 15.6157 16.7157 15.7657 16.5656C15.9157 16.4156 16 16.2121 16 16C16 15.7878 15.9157 15.5843 15.7657 15.4343C15.6157 15.2842 15.4122 15.2 15.2 15.2ZM7.2 18.4H6.4C6.18783 18.4 5.98434 18.4842 5.83431 18.6343C5.68429 18.7843 5.6 18.9878 5.6 19.2C5.6 19.4121 5.68429 19.6156 5.83431 19.7656C5.98434 19.9157 6.18783 20 6.4 20H7.2C7.41217 20 7.61566 19.9157 7.76569 19.7656C7.91571 19.6156 8 19.4121 8 19.2C8 18.9878 7.91571 18.7843 7.76569 18.6343C7.61566 18.4842 7.41217 18.4 7.2 18.4ZM15.2 18.4H10.4C10.1878 18.4 9.98434 18.4842 9.83432 18.6343C9.68429 18.7843 9.6 18.9878 9.6 19.2C9.6 19.4121 9.68429 19.6156 9.83432 19.7656C9.98434 19.9157 10.1878 20 10.4 20H15.2C15.4122 20 15.6157 19.9157 15.7657 19.7656C15.9157 19.6156 16 19.4121 16 19.2C16 18.9878 15.9157 18.7843 15.7657 18.6343C15.6157 18.4842 15.4122 18.4 15.2 18.4ZM7.2 34.4H6.4C6.18783 34.4 5.98434 34.4842 5.83431 34.6343C5.68429 34.7843 5.6 34.9878 5.6 35.2C5.6 35.4121 5.68429 35.6156 5.83431 35.7656C5.98434 35.9157 6.18783 36 6.4 36H7.2C7.41217 36 7.61566 35.9157 7.76569 35.7656C7.91571 35.6156 8 35.4121 8 35.2C8 34.9878 7.91571 34.7843 7.76569 34.6343C7.61566 34.4842 7.41217 34.4 7.2 34.4ZM15.2 34.4H10.4C10.1878 34.4 9.98434 34.4842 9.83432 34.6343C9.68429 34.7843 9.6 34.9878 9.6 35.2C9.6 35.4121 9.68429 35.6156 9.83432 35.7656C9.98434 35.9157 10.1878 36 10.4 36H15.2C15.4122 36 15.6157 35.9157 15.7657 35.7656C15.9157 35.6156 16 35.4121 16 35.2C16 34.9878 15.9157 34.7843 15.7657 34.6343C15.6157 34.4842 15.4122 34.4 15.2 34.4ZM7.2 37.6H6.4C6.18783 37.6 5.98434 37.6842 5.83431 37.8343C5.68429 37.9843 5.6 38.1878 5.6 38.4C5.6 38.6121 5.68429 38.8156 5.83431 38.9656C5.98434 39.1157 6.18783 39.2 6.4 39.2H7.2C7.41217 39.2 7.61566 39.1157 7.76569 38.9656C7.91571 38.8156 8 38.6121 8 38.4C8 38.1878 7.91571 37.9843 7.76569 37.8343C7.61566 37.6842 7.41217 37.6 7.2 37.6ZM15.2 37.6H10.4C10.1878 37.6 9.98434 37.6842 9.83432 37.8343C9.68429 37.9843 9.6 38.1878 9.6 38.4C9.6 38.6121 9.68429 38.8156 9.83432 38.9656C9.98434 39.1157 10.1878 39.2 10.4 39.2H15.2C15.4122 39.2 15.6157 39.1157 15.7657 38.9656C15.9157 38.8156 16 38.6121 16 38.4C16 38.1878 15.9157 37.9843 15.7657 37.8343C15.6157 37.6842 15.4122 37.6 15.2 37.6ZM25.8344 26.1656C25.9844 26.3156 26.1878 26.3999 26.4 26.4H26.4568C26.5713 26.3916 26.6826 26.3587 26.7832 26.3034C26.8839 26.2482 26.9714 26.172 27.04 26.08L29.44 22.88C29.5673 22.7102 29.622 22.4969 29.592 22.2868C29.562 22.0768 29.4497 21.8873 29.28 21.76C29.1103 21.6327 28.8969 21.578 28.6869 21.608C28.4768 21.638 28.2873 21.7502 28.16 21.92L26.3144 24.3824L26.1664 24.2344C26.0155 24.0886 25.8134 24.008 25.6037 24.0098C25.3939 24.0116 25.1933 24.0958 25.0449 24.2441C24.8966 24.3924 24.8125 24.5931 24.8107 24.8028C24.8088 25.0126 24.8895 25.2147 25.0352 25.3656L25.8344 26.1656ZM28.16 28.32L26.3144 30.7824L26.1664 30.6344C26.0926 30.5579 26.0043 30.497 25.9067 30.4551C25.8091 30.4131 25.7041 30.3911 25.5979 30.3902C25.4917 30.3892 25.3864 30.4095 25.288 30.4497C25.1897 30.4899 25.1004 30.5493 25.0253 30.6244C24.9502 30.6996 24.8908 30.7889 24.8505 30.8872C24.8103 30.9855 24.7901 31.0909 24.791 31.1971C24.7919 31.3033 24.814 31.4083 24.8559 31.5059C24.8978 31.6035 24.9588 31.6918 25.0352 31.7656L25.8352 32.5656C25.985 32.7154 26.1881 32.7997 26.4 32.8H26.4568C26.5713 32.7916 26.6826 32.7587 26.7832 32.7034C26.8839 32.6482 26.9714 32.572 27.04 32.48L29.44 29.28C29.5673 29.1102 29.622 28.8969 29.592 28.6868C29.562 28.4768 29.4497 28.2873 29.28 28.16C29.1103 28.0326 28.8969 27.978 28.6869 28.008C28.4768 28.038 28.2873 28.1502 28.16 28.32ZM28.16 34.72L26.3144 37.1824L26.1664 37.0344C26.0133 36.9012 25.8154 36.8312 25.6127 36.8385C25.41 36.8457 25.2176 36.9297 25.0745 37.0735C24.9314 37.2172 24.8482 37.41 24.8418 37.6127C24.8354 37.8155 24.9062 38.0131 25.04 38.1656L25.84 38.9656C25.9886 39.1142 26.1898 39.1984 26.4 39.2H26.4568C26.5713 39.1916 26.6826 39.1587 26.7832 39.1034C26.8839 39.0482 26.9714 38.972 27.04 38.88L29.44 35.68C29.5673 35.5102 29.622 35.2969 29.592 35.0868C29.562 34.8768 29.4497 34.6873 29.28 34.56C29.1103 34.4327 28.8969 34.378 28.6869 34.408C28.4768 34.438 28.2873 34.5502 28.16 34.72ZM32.8 25.6H40C40.2122 25.6 40.4157 25.5157 40.5657 25.3656C40.7157 25.2156 40.8 25.0121 40.8 24.8C40.8 24.5878 40.7157 24.3843 40.5657 24.2343C40.4157 24.0842 40.2122 24 40 24H32.8C32.5878 24 32.3843 24.0842 32.2343 24.2343C32.0843 24.3843 32 24.5878 32 24.8C32 25.0121 32.0843 25.2156 32.2343 25.3656C32.3843 25.5157 32.5878 25.6 32.8 25.6ZM32.8 32H40C40.2122 32 40.4157 31.9157 40.5657 31.7656C40.7157 31.6156 40.8 31.4121 40.8 31.2C40.8 30.9878 40.7157 30.7843 40.5657 30.6343C40.4157 30.4842 40.2122 30.4 40 30.4H32.8C32.5878 30.4 32.3843 30.4842 32.2343 30.6343C32.0843 30.7843 32 30.9878 32 31.2C32 31.4121 32.0843 31.6156 32.2343 31.7656C32.3843 31.9157 32.5878 32 32.8 32ZM32.8 38.4H40C40.2122 38.4 40.4157 38.3157 40.5657 38.1656C40.7157 38.0156 40.8 37.8121 40.8 37.6C40.8 37.3878 40.7157 37.1843 40.5657 37.0343C40.4157 36.8842 40.2122 36.8 40 36.8H32.8C32.5878 36.8 32.3843 36.8842 32.2343 37.0343C32.0843 37.1843 32 37.3878 32 37.6C32 37.8121 32.0843 38.0156 32.2343 38.1656C32.3843 38.3157 32.5878 38.4 32.8 38.4Z" fill="white"/>
</g>
</g>
<defs>
<clipPath id="clip0_140_1400">
<rect width="48" height="48" fill="white"/>
</clipPath>
<clipPath id="clip1_140_1400">
<rect width="48" height="48" fill="white"/>
</clipPath>
</defs>
</svg>
