<svg width="48" height="48" viewBox="0 0 48 48" fill="none" xmlns="http://www.w3.org/2000/svg">
<g clip-path="url(#clip0_140_1366)">
<g clip-path="url(#clip1_140_1366)">
<path d="M2.96794 44.6696C2.69611 44.944 2.51162 45.2928 2.43773 45.6719C2.36384 46.0511 2.40386 46.4436 2.55274 46.8C2.69738 47.1576 2.94639 47.4634 3.26731 47.6774C3.58824 47.8915 3.9662 48.0039 4.35194 48H20.9439C21.2571 48.0009 21.5674 47.9397 21.8568 47.8198C22.1461 47.6999 22.4088 47.5238 22.6295 47.3016L27.6063 42.3248C30.3064 41.4907 32.7971 40.0896 34.9119 38.2152C36.0393 37.2746 37.1097 36.2677 38.1175 35.2H39.9999C40.8486 35.2 41.6626 34.8629 42.2627 34.2627C42.8628 33.6626 43.1999 32.8487 43.1999 32V31.2C43.8365 31.2 44.4469 30.9471 44.897 30.4971C45.3471 30.047 45.5999 29.4365 45.5999 28.8V27.2C45.5979 26.6077 45.3754 26.0373 44.9759 25.6C45.3754 25.1627 45.5979 24.5923 45.5999 24V22.4C45.5979 21.8077 45.3754 21.2373 44.9759 20.8C45.3754 20.3627 45.5979 19.7923 45.5999 19.2V17.6C45.5979 17.0077 45.3754 16.4373 44.9759 16C45.3754 15.5627 45.5979 14.9923 45.5999 14.4V12.8C45.5999 12.1635 45.3471 11.553 44.897 11.1029C44.4469 10.6529 43.8365 10.4 43.1999 10.4V3.2C43.1999 2.35131 42.8628 1.53737 42.2627 0.937258C41.6626 0.337142 40.8486 0 39.9999 0L25.5999 0C24.7512 0 23.9373 0.337142 23.3372 0.937258C22.7371 1.53737 22.3999 2.35131 22.3999 3.2V7.6544C21.9092 7.35994 21.3482 7.20299 20.7759 7.2C20.1522 7.19969 19.5529 7.4422 19.1049 7.87615C18.6569 8.3101 18.3955 8.90141 18.3759 9.5248C18.2663 12.7208 17.7855 15.1544 17.0231 16.3784C16.384 17.4066 16.1263 18.6267 16.2951 19.8256L16.3919 20.4816C16.6731 22.173 16.8096 23.8854 16.7999 25.6C16.7999 33.904 3.18554 44.492 3.04874 44.5984C3.01998 44.62 2.99296 44.6438 2.96794 44.6696ZM43.9999 28.8C43.9999 29.0122 43.9157 29.2157 43.7656 29.3657C43.6156 29.5157 43.4121 29.6 43.1999 29.6H42.3999C41.9756 29.6 41.5686 29.4314 41.2686 29.1314C40.9685 28.8313 40.7999 28.4243 40.7999 28C40.7999 27.5757 40.9685 27.1687 41.2686 26.8686C41.5686 26.5686 41.9756 26.4 42.3999 26.4H43.1999C43.4121 26.4 43.6156 26.4843 43.7656 26.6343C43.9157 26.7843 43.9999 26.9878 43.9999 27.2V28.8ZM40.7999 23.2C40.7999 22.7757 40.9685 22.3687 41.2686 22.0686C41.5686 21.7686 41.9756 21.6 42.3999 21.6H43.1999C43.4121 21.6 43.6156 21.6843 43.7656 21.8343C43.9157 21.9843 43.9999 22.1878 43.9999 22.4V24C43.9999 24.2122 43.9157 24.4157 43.7656 24.5657C43.6156 24.7157 43.4121 24.8 43.1999 24.8H42.3999C41.9756 24.8 41.5686 24.6314 41.2686 24.3314C40.9685 24.0313 40.7999 23.6243 40.7999 23.2ZM40.7999 18.4C40.7999 17.9757 40.9685 17.5687 41.2686 17.2686C41.5686 16.9686 41.9756 16.8 42.3999 16.8H43.1999C43.4121 16.8 43.6156 16.8843 43.7656 17.0343C43.9157 17.1843 43.9999 17.3878 43.9999 17.6V19.2C43.9999 19.4122 43.9157 19.6157 43.7656 19.7657C43.6156 19.9157 43.4121 20 43.1999 20H42.3999C41.9756 20 41.5686 19.8314 41.2686 19.5314C40.9685 19.2313 40.7999 18.8243 40.7999 18.4ZM43.9999 12.8V14.4C43.9999 14.6122 43.9157 14.8157 43.7656 14.9657C43.6156 15.1157 43.4121 15.2 43.1999 15.2H42.3999C41.9756 15.2 41.5686 15.0314 41.2686 14.7314C40.9685 14.4313 40.7999 14.0243 40.7999 13.6C40.7999 13.1757 40.9685 12.7687 41.2686 12.4686C41.5686 12.1686 41.9756 12 42.3999 12H43.1999C43.4121 12 43.6156 12.0843 43.7656 12.2343C43.9157 12.3843 43.9999 12.5878 43.9999 12.8ZM29.5999 1.6H35.9999V2.4C35.9999 2.61217 35.9157 2.81566 35.7656 2.96569C35.6156 3.11571 35.4121 3.2 35.1999 3.2H30.3999C30.1878 3.2 29.9843 3.11571 29.8343 2.96569C29.6842 2.81566 29.5999 2.61217 29.5999 2.4V1.6ZM23.9999 3.2C23.9999 2.77565 24.1685 2.36869 24.4686 2.06863C24.7686 1.76857 25.1756 1.6 25.5999 1.6H27.9999V2.4C27.9999 3.03652 28.2528 3.64697 28.7029 4.09706C29.153 4.54714 29.7634 4.8 30.3999 4.8H35.1999C35.8365 4.8 36.4469 4.54714 36.897 4.09706C37.3471 3.64697 37.5999 3.03652 37.5999 2.4V1.6H39.9999C40.4243 1.6 40.8313 1.76857 41.1313 2.06863C41.4314 2.36869 41.5999 2.77565 41.5999 3.2V10.5136C41.0358 10.6555 40.5214 10.9497 40.1131 11.364C39.7047 11.7784 39.4181 12.297 39.2846 12.8632C39.151 13.4294 39.1755 14.0215 39.3556 14.5746C39.5357 15.1278 39.8643 15.6209 40.3055 16C39.9588 16.2964 39.6805 16.6645 39.4896 17.0788C39.2987 17.4931 39.1999 17.9438 39.1999 18.4C39.1999 18.8562 39.2987 19.3069 39.4896 19.7212C39.6805 20.1355 39.9588 20.5036 40.3055 20.8C39.9588 21.0964 39.6805 21.4645 39.4896 21.8788C39.2987 22.2931 39.1999 22.7438 39.1999 23.2C39.1999 23.6562 39.2987 24.1069 39.4896 24.5212C39.6805 24.9355 39.9588 25.3036 40.3055 25.6C39.8643 25.9791 39.5357 26.4722 39.3556 27.0254C39.1755 27.5785 39.151 28.1706 39.2846 28.7368C39.4181 29.303 39.7047 29.8216 40.1131 30.236C40.5214 30.6503 41.0358 30.9445 41.5999 31.0864V32C41.5999 32.4244 41.4314 32.8313 41.1313 33.1314C40.8313 33.4314 40.4243 33.6 39.9999 33.6H25.5999C25.1756 33.6 24.7686 33.4314 24.4686 33.1314C24.1685 32.8313 23.9999 32.4244 23.9999 32V3.2ZM4.07994 45.824C5.18474 44.964 18.3999 34.4984 18.3999 25.6C18.4107 23.8059 18.2689 22.0141 17.9759 20.244L17.8807 19.5984C17.764 18.7722 17.9419 17.9314 18.3831 17.2232C19.5471 15.3568 19.8911 12.0368 19.9751 9.5824C19.9797 9.37329 20.0661 9.1743 20.2156 9.02806C20.3651 8.88181 20.566 8.79995 20.7751 8.8C21.2055 8.80148 21.6178 8.97302 21.9221 9.27724C22.2265 9.58146 22.3983 9.99367 22.3999 10.424V32C22.3999 32.8487 22.7371 33.6626 23.3372 34.2627C23.9373 34.8629 24.7512 35.2 25.5999 35.2H35.8663C35.229 35.8195 34.5688 36.4151 33.8871 36.9856C30.0727 40.1672 27.0719 40.8096 27.0447 40.816C26.8891 40.8459 26.7461 40.922 26.6343 41.0344L21.4983 46.1704C21.4256 46.2433 21.3392 46.3011 21.2441 46.3405C21.1489 46.3799 21.0469 46.4001 20.9439 46.4H4.35194C4.28276 46.4017 4.21477 46.3819 4.15742 46.3432C4.10006 46.3044 4.0562 46.2488 4.03194 46.184C4.00574 46.1255 3.99636 46.0608 4.00484 45.9972C4.01332 45.9336 4.03932 45.8736 4.07994 45.824Z" fill="white"/>
<path d="M36.7999 30.3999H28.7999C28.5877 30.3999 28.3842 30.4842 28.2342 30.6342C28.0842 30.7843 27.9999 30.9877 27.9999 31.1999C27.9999 31.4121 28.0842 31.6156 28.2342 31.7656C28.3842 31.9156 28.5877 31.9999 28.7999 31.9999H36.7999C37.0121 31.9999 37.2156 31.9156 37.3656 31.7656C37.5156 31.6156 37.5999 31.4121 37.5999 31.1999C37.5999 30.9877 37.5156 30.7843 37.3656 30.6342C37.2156 30.4842 37.0121 30.3999 36.7999 30.3999ZM28.2343 12.5655C28.3852 12.7112 28.5873 12.7919 28.797 12.7901C29.0068 12.7882 29.2074 12.7041 29.3558 12.5558C29.5041 12.4074 29.5882 12.2068 29.59 11.997C29.5919 11.7873 29.5112 11.5852 29.3655 11.4343L28.3311 10.3999L29.3655 9.36552C29.5112 9.21463 29.5919 9.01255 29.59 8.8028C29.5882 8.59304 29.5041 8.39239 29.3558 8.24406C29.2074 8.09574 29.0068 8.0116 28.797 8.00978C28.5873 8.00795 28.3852 8.08859 28.2343 8.23432L26.6343 9.83432C26.4843 9.98434 26.4001 10.1878 26.4001 10.3999C26.4001 10.612 26.4843 10.8155 26.6343 10.9655L28.2343 12.5655ZM36.2343 12.5655C36.3843 12.7155 36.5878 12.7997 36.7999 12.7997C37.012 12.7997 37.2155 12.7155 37.3655 12.5655L38.9655 10.9655C39.1155 10.8155 39.1997 10.612 39.1997 10.3999C39.1997 10.1878 39.1155 9.98434 38.9655 9.83432L37.3655 8.23432C37.2146 8.08859 37.0125 8.00795 36.8028 8.00978C36.593 8.0116 36.3924 8.09574 36.244 8.24406C36.0957 8.39239 36.0116 8.59304 36.0098 8.8028C36.0079 9.01255 36.0886 9.21463 36.2343 9.36552L37.2687 10.3999L36.2343 11.4343C36.0843 11.5843 36.0001 11.7878 36.0001 11.9999C36.0001 12.212 36.0843 12.4155 36.2343 12.5655ZM31.7471 13.5583C31.9482 13.6252 32.1677 13.6095 32.3573 13.5147C32.5469 13.4199 32.6911 13.2538 32.7583 13.0527L34.3583 8.25272C34.3915 8.15291 34.4047 8.04755 34.3972 7.94263C34.3897 7.83772 34.3616 7.73532 34.3145 7.64127C34.2674 7.54722 34.2022 7.46337 34.1227 7.39451C34.0432 7.32565 33.9509 7.27311 33.8511 7.23992C33.7513 7.20672 33.6459 7.1935 33.541 7.20103C33.4361 7.20855 33.3337 7.23666 33.2397 7.28376C33.1456 7.33086 33.0618 7.39602 32.9929 7.47552C32.924 7.55502 32.8715 7.64731 32.8383 7.74712L31.2383 12.5471C31.2053 12.6469 31.1922 12.7523 31.1999 12.8571C31.2076 12.962 31.2359 13.0643 31.2831 13.1582C31.3304 13.2521 31.3957 13.3358 31.4753 13.4044C31.5549 13.4731 31.6473 13.5254 31.7471 13.5583ZM31.1999 18.3999H36.7999C37.0121 18.3999 37.2156 18.3156 37.3656 18.1656C37.5156 18.0156 37.5999 17.8121 37.5999 17.5999C37.5999 17.3877 37.5156 17.1843 37.3656 17.0342C37.2156 16.8842 37.0121 16.7999 36.7999 16.7999H31.1999C30.9877 16.7999 30.7842 16.8842 30.6342 17.0342C30.4842 17.1843 30.3999 17.3877 30.3999 17.5999C30.3999 17.8121 30.4842 18.0156 30.6342 18.1656C30.7842 18.3156 30.9877 18.3999 31.1999 18.3999ZM27.1999 18.3999H27.9999C28.2121 18.3999 28.4156 18.3156 28.5656 18.1656C28.7156 18.0156 28.7999 17.8121 28.7999 17.5999C28.7999 17.3877 28.7156 17.1843 28.5656 17.0342C28.4156 16.8842 28.2121 16.7999 27.9999 16.7999H27.1999C26.9877 16.7999 26.7842 16.8842 26.6342 17.0342C26.4842 17.1843 26.3999 17.3877 26.3999 17.5999C26.3999 17.8121 26.4842 18.0156 26.6342 18.1656C26.7842 18.3156 26.9877 18.3999 27.1999 18.3999ZM36.7999 20.7999H32.7999C32.5877 20.7999 32.3842 20.8842 32.2342 21.0342C32.0842 21.1843 31.9999 21.3877 31.9999 21.5999C31.9999 21.8121 32.0842 22.0156 32.2342 22.1656C32.3842 22.3156 32.5877 22.3999 32.7999 22.3999H36.7999C37.0121 22.3999 37.2156 22.3156 37.3656 22.1656C37.5156 22.0156 37.5999 21.8121 37.5999 21.5999C37.5999 21.3877 37.5156 21.1843 37.3656 21.0342C37.2156 20.8842 37.0121 20.7999 36.7999 20.7999ZM28.7999 20.7999C28.5877 20.7999 28.3842 20.8842 28.2342 21.0342C28.0842 21.1843 27.9999 21.3877 27.9999 21.5999C27.9999 21.8121 28.0842 22.0156 28.2342 22.1656C28.3842 22.3156 28.5877 22.3999 28.7999 22.3999H29.5999C29.8121 22.3999 30.0156 22.3156 30.1656 22.1656C30.3156 22.0156 30.3999 21.8121 30.3999 21.5999C30.3999 21.3877 30.3156 21.1843 30.1656 21.0342C30.0156 20.8842 29.8121 20.7999 29.5999 20.7999H28.7999ZM36.7999 24.7999H32.7999C32.5877 24.7999 32.3842 24.8842 32.2342 25.0342C32.0842 25.1843 31.9999 25.3877 31.9999 25.5999C31.9999 25.8121 32.0842 26.0156 32.2342 26.1656C32.3842 26.3156 32.5877 26.3999 32.7999 26.3999H36.7999C37.0121 26.3999 37.2156 26.3156 37.3656 26.1656C37.5156 26.0156 37.5999 25.8121 37.5999 25.5999C37.5999 25.3877 37.5156 25.1843 37.3656 25.0342C37.2156 24.8842 37.0121 24.7999 36.7999 24.7999ZM28.7999 26.3999H29.5999C29.8121 26.3999 30.0156 26.3156 30.1656 26.1656C30.3156 26.0156 30.3999 25.8121 30.3999 25.5999C30.3999 25.3877 30.3156 25.1843 30.1656 25.0342C30.0156 24.8842 29.8121 24.7999 29.5999 24.7999H28.7999C28.5877 24.7999 28.3842 24.8842 28.2342 25.0342C28.0842 25.1843 27.9999 25.3877 27.9999 25.5999C27.9999 25.8121 28.0842 26.0156 28.2342 26.1656C28.3842 26.3156 28.5877 26.3999 28.7999 26.3999Z" fill="white"/>
</g>
</g>
<defs>
<clipPath id="clip0_140_1366">
<rect width="48" height="48" fill="white"/>
</clipPath>
<clipPath id="clip1_140_1366">
<rect width="48" height="48" fill="white"/>
</clipPath>
</defs>
</svg>
